<svg xmlns="http://www.w3.org/2000/svg" version="1.1" xmlns:xlink="http://www.w3.org/1999/xlink" xmlns:svgjs="http://svgjs.dev/svgjs" width="1000" height="1000" viewBox="0 0 1000 1000"><rect width="1000" height="1000" fill="#000000"></rect><g transform="matrix(0.7,0,0,0.7,149.57575757575756,428.50012841499426)"><svg viewBox="0 0 396 81" data-background-color="#ffffff" preserveAspectRatio="xMidYMid meet" height="204" width="1000" xmlns="http://www.w3.org/2000/svg" xmlns:xlink="http://www.w3.org/1999/xlink"><g id="tight-bounds" transform="matrix(1,0,0,1,0.2400000000000091,0.0566498486377327)"><svg viewBox="0 0 395.52 80.88670030272452" height="80.88670030272452" width="395.52"><g><svg viewBox="0 0 395.52 80.88670030272452" height="80.88670030272452" width="395.52"><g><svg viewBox="0 0 395.52 80.88670030272452" height="80.88670030272452" width="395.52"><g id="textblocktransform"><svg viewBox="0 0 395.52 80.88670030272452" height="80.88670030272452" width="395.52" id="textblock"><g><svg viewBox="0 0 395.52 80.88670030272452" height="80.88670030272452" width="395.52"><g transform="matrix(1,0,0,1,0,0)"><svg width="395.52" viewBox="2.2899999618530273 -29.25 145.16000366210938 29.690000534057617" height="80.88670030272452" data-palette-color="#1f2226"><path d="M18.12 0.44L18.12 0.44Q13.53 0.44 9.96-1.22 6.4-2.88 4.35-6.1 2.29-9.33 2.29-13.96L2.29-13.96Q2.29-17.33 3.49-20.12 4.69-22.9 6.91-24.9 9.13-26.9 12.21-28 15.28-29.1 19.04-29.1L19.04-29.1Q21.19-29.1 23.44-28.66 25.68-28.22 27.29-27.49L27.29-27.49 27.64-20.26 24.9-20.07 23.29-25.05Q22.36-25.59 21.12-25.85 19.87-26.12 18.6-26.12L18.6-26.12Q15.53-26.12 13.45-24.71 11.38-23.29 10.33-20.8 9.28-18.31 9.28-15.04L9.28-15.04Q9.28-11.13 10.6-8.35 11.91-5.57 14.14-4.1 16.36-2.64 19.04-2.64L19.04-2.64Q20.36-2.64 21.73-3.03 23.1-3.42 24.02-4.15L24.02-4.15 25.88-8.59 28.81-8.3 27.39-1.95Q25.88-1.03 23.36-0.29 20.85 0.44 18.12 0.44ZM46.92 0.44L46.92 0.44Q42.53 0.44 39.11-1.42 35.69-3.27 33.74-6.54 31.78-9.81 31.78-14.06L31.78-14.06Q31.78-18.41 33.74-21.8 35.69-25.2 39.13-27.15 42.58-29.1 46.97-29.1L46.97-29.1Q51.27-29.1 54.51-27.27 57.76-25.44 59.64-22.19 61.52-18.95 61.52-14.65L61.52-14.65Q61.52-11.04 60.2-8.23 58.88-5.42 56.76-3.49 54.64-1.56 52.07-0.56 49.51 0.44 46.92 0.44ZM47.31-2.88L47.31-2.88Q49.7-2.88 51.36-4.13 53.02-5.37 53.88-7.74 54.73-10.11 54.73-13.43L54.73-13.43Q54.73-17.29 53.68-20.14 52.63-23 50.78-24.58 48.92-26.17 46.38-26.17L46.38-26.17Q42.82-26.17 40.74-23.27 38.67-20.36 38.67-15.28L38.67-15.28Q38.67-11.62 39.79-8.84 40.92-6.05 42.84-4.47 44.77-2.88 47.31-2.88ZM65.52-26.42L65.67-28.66 78.61-28.66Q86.52-28.66 90.91-24.98 95.31-21.29 95.31-14.7L95.31-14.7Q95.31-10.4 93.23-7.08 91.16-3.76 87.5-1.88 83.83 0 79.15 0L79.15 0 65.67 0 65.52-2.25 68.6-2.98Q68.75-3.37 68.84-5.47 68.94-7.57 68.94-10.4L68.94-10.4 68.94-18.21Q68.94-21.24 68.84-23.32 68.75-25.39 68.6-25.68L68.6-25.68 65.52-26.42ZM74.85-25.63L74.85-25.63Q74.85-25.24 74.82-24.37 74.8-23.49 74.78-22 74.75-20.51 74.75-18.21L74.75-18.21 74.75-10.4Q74.75-9.08 74.78-7.71 74.8-6.35 74.87-5.22 74.95-4.1 75-3.42L75-3.42Q76.26-3.22 77.41-3.1 78.56-2.98 79.58-2.98L79.58-2.98Q84.03-2.98 86.35-5.49 88.67-8.01 88.67-13.18L88.67-13.18Q88.67-16.55 87.89-18.95 87.1-21.34 85.69-22.9 84.27-24.46 82.34-25.2 80.41-25.93 78.17-25.93L78.17-25.93Q77.39-25.93 76.56-25.85 75.73-25.78 74.85-25.63ZM110.25-18.07L110.25-10.4Q110.25-8.45 110.3-6.84 110.34-5.22 110.42-4.22 110.49-3.22 110.59-2.98L110.59-2.98 114.64-2.25 114.49 0 100.29 0 100.14-2.25 104.19-2.98Q104.24-3.27 104.29-4.35 104.34-5.42 104.39-7.01 104.44-8.59 104.44-10.4L104.44-10.4 104.44-17.04Q104.44-18.8 104.36-20.53 104.29-22.27 104.19-23.1L104.19-23.1 99.7-22.17 99.55-24.9 110.59-29.25Q110.44-27.34 110.34-24.54 110.25-21.73 110.25-18.07L110.25-18.07ZM142.42-8.45L140.76-8.45 140.76-16.94Q140.76-19.48 140.74-21.36 140.71-23.24 140.64-24.37 140.57-25.49 140.47-25.68L140.47-25.68 137.1-26.42 137.25-28.66 147.3-28.66 147.45-26.42 144.37-25.68Q144.33-25.49 144.25-24.37 144.18-23.24 144.13-21.36 144.08-19.48 144.08-16.94L144.08-16.94 144.08-6.93Q144.08-4.88 144.11-3.17 144.13-1.46 144.13 0.24L144.13 0.24 141.35 0.24 122.3-22.9 124.36-22.9 124.36-12.16Q124.36-9.42 124.4-7.47 124.45-5.52 124.53-4.39 124.6-3.27 124.7-2.98L124.7-2.98 128.07-2.25 127.92 0 117.76 0 117.62-2.25 120.69-2.98Q120.79-3.27 120.84-4.44 120.89-5.62 120.94-7.59 120.99-9.57 120.99-12.16L120.99-12.16 120.99-19.24Q120.99-20.95 120.94-22.31 120.89-23.68 120.82-24.58 120.74-25.49 120.69-25.68L120.69-25.68 117.62-26.42 117.76-28.66 125.14-28.66 142.42-8.45Z" opacity="1" transform="matrix(1,0,0,1,0,0)" fill="#ffffff" class="wordmark-text-0" data-fill-palette-color="primary" id="text-0"></path></svg></g></svg></g></svg></g></svg></g></svg></g><defs></defs></svg><rect width="395.52" height="80.88670030272452" fill="none" stroke="none" visibility="hidden"></rect></g></svg></g></svg>